G75*
%MOIN*%
%OFA0B0*%
%FSLAX25Y25*%
%IPPOS*%
%LPD*%
%AMOC8*
5,1,8,0,0,1.08239X$1,22.5*
%
%ADD10R,0.08800X0.04800*%
%ADD11R,0.08661X0.14173*%
%ADD12R,0.08661X0.02362*%
%ADD13R,0.07874X0.00787*%
%ADD14R,0.00787X0.07874*%
D10*
X0234694Y0080132D03*
X0234694Y0089232D03*
X0234694Y0098332D03*
D11*
X0259094Y0089232D03*
D12*
X0267657Y0209732D03*
X0267657Y0214732D03*
X0267657Y0219732D03*
X0267657Y0224732D03*
X0267657Y0229732D03*
X0267657Y0234732D03*
X0267657Y0239732D03*
X0288130Y0239732D03*
X0288130Y0234732D03*
X0288130Y0229732D03*
X0288130Y0224732D03*
X0288130Y0219732D03*
X0288130Y0214732D03*
X0288130Y0209732D03*
D13*
X0299094Y0150059D03*
X0299094Y0148091D03*
X0299094Y0146122D03*
X0299094Y0144154D03*
X0299094Y0142185D03*
X0299094Y0140217D03*
X0299094Y0138248D03*
X0299094Y0136280D03*
X0299094Y0134311D03*
X0299094Y0132343D03*
X0299094Y0130374D03*
X0299094Y0128406D03*
X0261693Y0128406D03*
X0261693Y0130374D03*
X0261693Y0132343D03*
X0261693Y0134311D03*
X0261693Y0136280D03*
X0261693Y0138248D03*
X0261693Y0140217D03*
X0261693Y0142185D03*
X0261693Y0144154D03*
X0261693Y0146122D03*
X0261693Y0148091D03*
X0261693Y0150059D03*
D14*
X0269567Y0157933D03*
X0271535Y0157933D03*
X0273504Y0157933D03*
X0275472Y0157933D03*
X0277441Y0157933D03*
X0279409Y0157933D03*
X0281378Y0157933D03*
X0283346Y0157933D03*
X0285315Y0157933D03*
X0287283Y0157933D03*
X0289252Y0157933D03*
X0291220Y0157933D03*
X0291220Y0120532D03*
X0289252Y0120532D03*
X0287283Y0120532D03*
X0285315Y0120532D03*
X0283346Y0120532D03*
X0281378Y0120532D03*
X0279409Y0120532D03*
X0277441Y0120532D03*
X0275472Y0120532D03*
X0273504Y0120532D03*
X0271535Y0120532D03*
X0269567Y0120532D03*
M02*
