%
M48
M72
T01C0.0118
T02C0.0236
T03C0.0280
T04C0.0320
T05C0.0360
T06C0.0400
T07C0.0433
T08C0.0512
T09C0.0550
T10C0.0870
T11C0.1260
T12C0.1300
%
T01
X6264Y5408
X6264Y6392
X6264Y6982
X6657Y7376
X6461Y7967
X6461Y8557
X6461Y9148
X6461Y9738
X5476Y9935
X4689Y9148
X5476Y8360
X4689Y7573
X5476Y6785
X3902Y6785
X3114Y7573
X2327Y8360
X3114Y9148
X2327Y9935
X4689Y10722
X5476Y11510
X4689Y12297
X2327Y13085
X2327Y14659
X3114Y15447
X2327Y16234
X3114Y17022
X2327Y17809
X2327Y19384
X2130Y20762
X3114Y20762
X4098Y20762
X4098Y22140
X3114Y22140
X2524Y22927
X3114Y23715
X2524Y24502
X3705Y24502
X4492Y23715
X5083Y22927
X5083Y21943
X5673Y21746
X5476Y21156
X6067Y21156
X6264Y21746
X6854Y21746
X6657Y21156
X7248Y21156
X7839Y21156
X8232Y21549
X8035Y22140
X8626Y22140
X9217Y22140
X9807Y22140
X10398Y22140
X10988Y22140
X11579Y22140
X12169Y22140
X12760Y22140
X13350Y22140
X13941Y22140
X14531Y22140
X15122Y22140
X15713Y22140
X16303Y22140
X16303Y21156
X16894Y21156
X17484Y21156
X18075Y21156
X18665Y21156
X19256Y21156
X19846Y21156
X20240Y20762
X20240Y20368
X20240Y19778
X20240Y19187
X20240Y18596
X20437Y18203
X20831Y17809
X21224Y17415
X21618Y17022
X22012Y16628
X22799Y15841
X23193Y15447
X23587Y15053
X23980Y14659
X24374Y14266
X23589Y13698
X23539Y12823
X23980Y12494
X25161Y13675
X26146Y12494
X26886Y11108
X26736Y10132
X26736Y9541
X26736Y8951
X25268Y9230
X25264Y9848
X25039Y10123
X25489Y10123
X24689Y9773
X24289Y10123
X24177Y10722
X24039Y9373
X22602Y9345
X22602Y8754
X22602Y8163
X23587Y7376
X25303Y7703
X25266Y8465
X26343Y7573
X25555Y6982
X25555Y5014
X26539Y5014
X27524Y5014
X28508Y5014
X29492Y5014
X30476Y5014
X31461Y5014
X32445Y5014
X33626Y5014
X34217Y5998
X33626Y7376
X32839Y7770
X32051Y8360
X32839Y8951
X32051Y9541
X32839Y10132
X32051Y10722
X32051Y11707
X32839Y11848
X32114Y12548
X31614Y13298
X31914Y13973
X32489Y13723
X33626Y12888
X34610Y12100
X35398Y12888
X36439Y12123
X37366Y10919
X38547Y10132
X37760Y9345
X38547Y8360
X37563Y7573
X35890Y8262
X34610Y10132
X33626Y10919
X30476Y10329
X30476Y9541
X30476Y8557
X29295Y9935
X28639Y10473
X29295Y10919
X29886Y12494
X28939Y13423
X29189Y13773
X28889Y14073
X29189Y14423
X29098Y15053
X29589Y15398
X28239Y14748
X27714Y14348
X27439Y13723
X26989Y14023
X27339Y15148
X26139Y15373
X25358Y15250
X24768Y15447
X24177Y16037
X23783Y16431
X23193Y17022
X22799Y17415
X22406Y17809
X22012Y18203
X21618Y18596
X21421Y18990
X21421Y19581
X21421Y20171
X21421Y20762
X21224Y21352
X20831Y21746
X20437Y22140
X19846Y22140
X19256Y22140
X18665Y22140
X18075Y22140
X17484Y22140
X18075Y23222
X19453Y23222
X18075Y24600
X15417Y23222
X13547Y23222
X11579Y22927
X10988Y23715
X10201Y24502
X9610Y23715
X9020Y24502
X8035Y25093
X8035Y25683
X8035Y26274
X8035Y26864
X7248Y26667
X7051Y27258
X6657Y27848
X7445Y28439
X7051Y28833
X6461Y28833
X5673Y28833
X5083Y29030
X4295Y28439
X3902Y28833
X4886Y30014
X4098Y30604
X3902Y31982
X4689Y32770
X5476Y33557
X6264Y32770
X7051Y33557
X6264Y34345
X7051Y35132
X7839Y34345
X8626Y33557
X9413Y32770
X8626Y31982
X7839Y32770
X7051Y31982
X6264Y31195
X5476Y31982
X3114Y32770
X2327Y31982
X2327Y28833
X3039Y26973
X3989Y26923
X4089Y25873
X3039Y25873
X5280Y26077
X6067Y26274
X6067Y26864
X5280Y26667
X6067Y25683
X5280Y25486
X6067Y25093
X7248Y25486
X7248Y26077
X6067Y28045
X5280Y28045
X9489Y26923
X10539Y26923
X11776Y26667
X11776Y26077
X11776Y25486
X12563Y25683
X12563Y25093
X13744Y25486
X13744Y26077
X13744Y26667
X14531Y26864
X14531Y26274
X14531Y25683
X14531Y25093
X12563Y26274
X12563Y26864
X13744Y28439
X13350Y28833
X12760Y28833
X12169Y28833
X11579Y29030
X12563Y29620
X11382Y30014
X10594Y30604
X10201Y31982
X10988Y32770
X10201Y33557
X9413Y34345
X8626Y35132
X10201Y35132
X11776Y33557
X12563Y32770
X13350Y33557
X12563Y34345
X13350Y35132
X15713Y34345
X16500Y33557
X15713Y32770
X16500Y31982
X17287Y32770
X18075Y33557
X18862Y32770
X19650Y33557
X20437Y32770
X21224Y33557
X20437Y34345
X19650Y35132
X21224Y35132
X22012Y34345
X22799Y33557
X22012Y32770
X22799Y31982
X23587Y31195
X24374Y31982
X23587Y32770
X24374Y33557
X25161Y32770
X25949Y33557
X26736Y32770
X27524Y33557
X28311Y32770
X29098Y33557
X28311Y34345
X27524Y35132
X26736Y34345
X25949Y35132
X29098Y35132
X30673Y33557
X29886Y32770
X30673Y31982
X29886Y31195
X29098Y31982
X27524Y31982
X25949Y31982
X24472Y29620
X24276Y27061
X24965Y24600
X25654Y23616
X25789Y22498
X25789Y21723
X25439Y20498
X25358Y19679
X25949Y19679
X24965Y18793
X24965Y17415
X23193Y19187
X22799Y19778
X22602Y20565
X22504Y21746
X23783Y22730
X23882Y20762
X21618Y23026
X26736Y24600
X28705Y24600
X29886Y23616
X29886Y22533
X29889Y21723
X29886Y20467
X29984Y19876
X29394Y19876
X28705Y19679
X27622Y19482
X30280Y18596
X30378Y17612
X31657Y18793
X32248Y18793
X32445Y19187
X33035Y20565
X33823Y20565
X34610Y20565
X35398Y20565
X36185Y20565
X36972Y20565
X37760Y20565
X38547Y20565
X39335Y20565
X37661Y21549
X37661Y23124
X36087Y23222
X36087Y24699
X37661Y24600
X39630Y23124
X35890Y21549
X34020Y22337
X33626Y21746
X32346Y22337
X31756Y22829
X32248Y24699
X30575Y24994
X31264Y27159
X34020Y27848
X37268Y27159
X37366Y29522
X38547Y30408
X38547Y31982
X37760Y32770
X38547Y33557
X39335Y32770
X36972Y33557
X36185Y32770
X35398Y33557
X36185Y34345
X35398Y35132
X34610Y34345
X33823Y33557
X34610Y32770
X33823Y31982
X33035Y32770
X32248Y33557
X31461Y32770
X32248Y31982
X33035Y34345
X32248Y35132
X33823Y35132
X35398Y31982
X36185Y31195
X36972Y31982
X39827Y27455
X33921Y23222
X31756Y20762
X32264Y17648
X33489Y17623
X33164Y16123
X34114Y16123
X34014Y14273
X37366Y16628
X38547Y15644
X39531Y16628
X38154Y17612
X39531Y18203
X36382Y17612
X39531Y14659
X38547Y13675
X39531Y12691
X38547Y11904
X39531Y10919
X39531Y9148
X39531Y7573
X37760Y5408
X32051Y7376
X29295Y7376
X24571Y5014
X23587Y5014
X22602Y5014
X21126Y5014
X19748Y5014
X19014Y5848
X18370Y5014
X17287Y5014
X16894Y5604
X16303Y5604
X15713Y5604
X14728Y5604
X14138Y5604
X13350Y5408
X11579Y5604
X10988Y5604
X10004Y5604
X9413Y5604
X8035Y5211
X7839Y10919
X8232Y11313
X8232Y11904
X7642Y11904
X9610Y12691
X10102Y12002
X10496Y12691
X11283Y12691
X10988Y12002
X10791Y11116
X10201Y11116
X9610Y11116
X12639Y11923
X12760Y11116
X13941Y11116
X14728Y11116
X15516Y11116
X15539Y12723
X14539Y12773
X15064Y15523
X15489Y16473
X16839Y16698
X18489Y16273
X19539Y14748
X19646Y14120
X18075Y12691
X18589Y11773
X17664Y10748
X17939Y9873
X17091Y9345
X17091Y8754
X17091Y7967
X17091Y7179
X17091Y6589
X20189Y6073
X21224Y7278
X20164Y9848
X20339Y10273
X20634Y11313
X21224Y12494
X22289Y14223
X21126Y15742
X15139Y18398
X13014Y18223
X12389Y16123
X11764Y16148
X11064Y14948
X11539Y14348
X13489Y15823
X9413Y15447
X8339Y14673
X9539Y14348
X9339Y16323
X9039Y18273
X6539Y18998
X6264Y17022
X5476Y16234
X4689Y15447
X3902Y16234
X4689Y17022
X6264Y15447
X6539Y14298
X9610Y20762
X10594Y20762
X11776Y21156
X12366Y21156
X12957Y21156
X13547Y21156
X14138Y21156
X14728Y21156
X15319Y21156
X10201Y22927
X9020Y22927
X7445Y21943
X6756Y23222
X3705Y22927
X2130Y22140
X9539Y25873
X10539Y25873
X15516Y27947
X17976Y27159
X19748Y27553
X21421Y27553
X17976Y29522
X18862Y31195
X18075Y31982
X19650Y31982
X21224Y31982
X22799Y35132
X16500Y35132
X14138Y32770
X14925Y31982
X13350Y31982
X12563Y31195
X11776Y31982
X3902Y35132
X27720Y27553
X30969Y29719
X27917Y22533
X28264Y13723
X28539Y13123
X28164Y12798
X27689Y12873
T02
X28939Y16923
X26689Y8023
X16697Y8360
X16697Y7573
X15909Y7967
X15909Y8754
X15909Y9541
X15909Y10329
X15122Y10722
X14335Y10329
X14335Y9541
X15122Y9935
X13547Y9935
X12760Y9541
X13547Y9148
X12760Y8754
X13547Y8360
X12760Y7967
X13547Y7573
X12760Y7179
X13547Y6785
X13547Y5998
X14335Y6392
X14335Y7179
X15122Y6785
X15122Y5998
X15909Y6392
X15909Y7179
X15122Y7573
X16697Y9148
X13547Y10722
X12760Y10329
X11972Y10722
X11185Y10329
X11185Y9541
X11185Y8754
X11185Y7967
X11185Y7179
X11185Y6392
X10398Y6785
X10398Y5998
X9610Y6392
X8823Y6785
X9610Y7179
X9020Y7573
X9610Y7967
X9020Y8360
X9610Y8754
X9020Y9148
X9610Y9541
X8823Y9935
X9610Y10329
X10398Y10722
X10398Y9935
X10398Y9148
X10398Y8360
X10398Y7573
X11972Y7573
X11972Y8360
X11972Y9148
X11972Y9935
X11972Y6785
X11972Y5998
X8035Y6392
T03
X24689Y11223
X24689Y11923
X29289Y9223
X29289Y8523
X24639Y16023
X24639Y16723
X25639Y17923
X25639Y18623
X28289Y18573
X28289Y17873
X30939Y18173
X30939Y18873
T04
X30839Y19923
X31789Y19923
X33289Y21123
X34639Y22673
X34639Y23673
X33289Y25123
X33289Y25873
X32289Y25723
X30289Y25723
X29289Y25673
X28289Y25673
X27289Y25673
X26289Y25673
X25289Y25723
X26789Y26673
X28789Y26673
X28789Y28673
X28289Y29673
X27289Y29673
X26289Y29673
X26789Y28673
X25289Y28673
X23289Y28673
X22039Y29673
X21039Y29623
X20039Y29623
X20539Y28623
X19039Y28623
X17039Y28623
X15839Y29723
X14539Y29423
X14139Y27423
X12139Y27423
X10539Y29423
X9539Y29423
X9539Y28423
X8039Y29423
X7689Y27423
X5689Y27423
X4039Y29423
X3039Y29423
X3039Y28423
X2539Y25423
X3539Y25423
X4539Y25423
X5689Y24473
X7689Y24473
X9039Y25423
X10039Y25423
X11039Y25423
X12139Y24473
X14139Y24473
X15839Y24923
X15839Y25723
X17039Y25723
X19039Y25723
X20039Y25623
X21039Y25623
X22039Y25673
X22039Y24873
X23289Y25723
X23789Y23873
X24739Y23923
X22039Y20873
X23789Y19873
X24739Y19923
X24289Y18673
X24289Y17673
X26039Y16923
X26039Y15923
X25139Y14623
X26039Y11923
X26039Y10923
X27939Y9373
X27939Y8373
X30039Y10923
X30039Y11923
X31189Y13823
X31339Y14573
X31339Y15573
X31689Y16623
X32689Y16623
X33639Y16623
X34639Y16623
X35289Y17623
X36439Y15423
X37989Y15023
X37989Y14073
X37989Y13073
X36439Y13523
X35189Y13823
X37989Y16023
X39839Y20973
X38639Y22673
X38639Y23673
X39839Y24973
X39789Y25773
X38389Y25723
X36389Y25723
X35339Y25673
X34339Y25673
X34839Y26673
X34839Y28673
X35289Y29673
X34289Y29673
X33289Y29873
X32289Y28673
X30289Y28673
X29289Y29673
X30839Y23923
X31789Y23923
X28339Y20223
X27339Y20223
X26989Y18773
X26989Y17773
X29589Y17873
X29589Y18873
X31289Y17623
X30039Y16923
X30039Y15923
X35489Y10573
X36489Y10573
X38058Y10623
X38058Y6623
X21839Y5723
X21839Y9723
X21139Y14623
X20139Y16173
X18939Y15173
X17939Y15173
X16939Y15173
X15939Y15173
X14539Y14673
X13489Y14673
X12389Y14673
X10789Y15823
X10289Y15073
X9789Y15823
X8339Y15823
X7839Y15073
X7339Y15823
X6039Y14673
X5039Y14673
X4039Y14673
X3039Y14673
X7139Y12373
X7139Y11373
X7400Y10225
X6400Y10225
X7139Y6423
X7139Y5423
X8689Y5723
X5089Y5723
X4089Y5723
X12689Y5723
X10289Y17073
X9789Y17823
X10789Y17823
X12389Y18673
X13489Y18673
X14539Y18673
X15939Y18173
X16939Y18173
X17939Y18173
X18939Y18173
X20139Y17173
X15839Y20923
X16989Y22673
X16989Y23673
X20539Y26623
X20989Y23673
X20989Y22673
X11039Y21423
X10039Y21423
X9039Y21423
X6039Y18673
X5039Y18673
X4039Y18673
X3039Y18673
X2539Y21423
X3539Y21423
X4539Y21423
X7339Y17823
X7839Y17073
X8339Y17823
X36389Y28673
X38389Y28673
X39789Y29773
T05
X19539Y10723
X18539Y10723
X18539Y9723
X19539Y9723
X19539Y8723
X18539Y8723
X18539Y7723
X18539Y6723
X19539Y6723
X19539Y7723
T06
X23039Y6573
X23039Y5573
X24039Y5573
X24039Y6573
X25039Y6573
X25039Y5573
X26039Y5573
X26039Y6573
X27039Y6573
X27039Y5573
X28039Y5573
X28039Y6573
X29039Y6573
X29039Y5573
X30039Y5573
X30039Y6573
X31039Y6573
X31039Y5573
X32039Y5573
X32039Y6573
X33039Y6573
X33039Y5573
X35099Y6793
X36879Y6793
X36879Y9353
X35099Y9353
X34489Y15223
X33489Y15223
X32489Y15223
X22119Y12888
X22119Y11888
X22119Y10888
X19039Y13673
X18039Y13673
X17039Y13673
X16039Y13673
X15039Y13673
X14039Y13673
X13039Y13673
X12039Y13673
X11039Y13673
X10039Y13673
X9039Y13673
X8039Y13673
X7039Y13673
X6039Y13673
X5039Y13673
X4039Y13673
X3039Y13673
X8034Y9452
X8034Y8452
X8034Y7452
X8039Y19673
X7039Y19673
X6039Y19673
X5039Y19673
X4039Y19673
X3039Y19673
X9039Y19673
X10039Y19673
X11039Y19673
X12039Y19673
X13039Y19673
X14039Y19673
X15039Y19673
X16039Y19673
X17039Y19673
X18039Y19673
X19039Y19673
X11039Y26423
X10039Y26423
X9039Y26423
X9039Y27423
X10039Y27423
X11039Y27423
X4539Y27423
X3539Y27423
X2539Y27423
X2539Y26423
X3539Y26423
X4539Y26423
T07
X5589Y12373
X2589Y12373
X8939Y12373
X8939Y11573
X11939Y11573
X11939Y12373
T08
X3899Y9832
X3899Y7832
T09
X5148Y30923
X11579Y30923
X18009Y30923
X24440Y30923
X30870Y30923
X37301Y30923
T10
X39501Y30923
X37301Y34722
X35101Y30923
X33070Y30923
X30870Y34722
X28670Y30923
X26640Y30923
X24440Y34722
X22240Y30923
X20209Y30923
X18009Y34722
X15809Y30923
X13779Y30923
X11579Y34722
X9379Y30923
X7348Y30923
X5148Y34722
X2948Y30923
T11
X2539Y5423
X2539Y34919
X39909Y34919
X39909Y5423
T12
X14652Y8452
M30
