G75*
%MOIN*%
%OFA0B0*%
%FSLAX25Y25*%
%IPPOS*%
%LPD*%
%AMOC8*
5,1,8,0,0,1.08239X$1,22.5*
%
%ADD10C,0.13398*%
%ADD11OC8,0.05600*%
%ADD12OC8,0.05400*%
%ADD13C,0.05400*%
%ADD14R,0.09600X0.05600*%
%ADD15R,0.09461X0.14973*%
%ADD16C,0.05600*%
%ADD17C,0.05600*%
%ADD18C,0.06800*%
%ADD19R,0.09461X0.03162*%
%ADD20OC8,0.06800*%
%ADD21OC8,0.09050*%
%ADD22OC8,0.13500*%
%ADD23OC8,0.06200*%
%ADD24R,0.08674X0.01587*%
%ADD25R,0.01587X0.08674*%
%ADD26C,0.08674*%
%ADD27C,0.07493*%
%ADD28R,0.30800X0.30800*%
%ADD29OC8,0.07100*%
%ADD30C,0.07100*%
%ADD31C,0.11811*%
%ADD32C,0.04343*%
D10*
X0025394Y0054232D03*
X0025394Y0349193D03*
X0399094Y0349193D03*
X0399094Y0054232D03*
D11*
X0380583Y0066232D03*
X0380583Y0106232D03*
X0364894Y0105732D03*
X0354894Y0105732D03*
X0379894Y0130732D03*
X0379894Y0140732D03*
X0379894Y0150232D03*
X0379894Y0160232D03*
X0352894Y0176232D03*
X0346394Y0166232D03*
X0336394Y0166232D03*
X0326894Y0166232D03*
X0316894Y0166232D03*
X0313394Y0155732D03*
X0313394Y0145732D03*
X0311894Y0138232D03*
X0300394Y0119232D03*
X0300394Y0109232D03*
X0279394Y0093732D03*
X0279394Y0083732D03*
X0260394Y0109232D03*
X0260394Y0119232D03*
X0251394Y0146232D03*
X0260394Y0159232D03*
X0260394Y0169232D03*
X0269894Y0177732D03*
X0269894Y0187732D03*
X0273394Y0202232D03*
X0283394Y0202232D03*
X0295894Y0188732D03*
X0295894Y0178732D03*
X0300394Y0169232D03*
X0300394Y0159232D03*
X0312894Y0176232D03*
X0308394Y0199232D03*
X0317894Y0199232D03*
X0332894Y0211232D03*
X0346394Y0226732D03*
X0346394Y0236732D03*
X0332894Y0251232D03*
X0332894Y0258732D03*
X0322894Y0257232D03*
X0302894Y0257232D03*
X0292894Y0256732D03*
X0282894Y0256732D03*
X0272894Y0256732D03*
X0262894Y0256732D03*
X0252894Y0257232D03*
X0267894Y0266732D03*
X0287894Y0266732D03*
X0287894Y0286732D03*
X0292894Y0296732D03*
X0282894Y0296732D03*
X0272894Y0296732D03*
X0262894Y0296732D03*
X0267894Y0286732D03*
X0252894Y0286732D03*
X0232894Y0286732D03*
X0220394Y0296732D03*
X0210394Y0296232D03*
X0200394Y0296232D03*
X0205394Y0286232D03*
X0190394Y0286232D03*
X0170394Y0286232D03*
X0158394Y0297232D03*
X0145394Y0294232D03*
X0141394Y0274232D03*
X0121394Y0274232D03*
X0105394Y0294232D03*
X0095394Y0294232D03*
X0095394Y0284232D03*
X0080394Y0294232D03*
X0076894Y0274232D03*
X0056894Y0274232D03*
X0040394Y0294232D03*
X0030394Y0294232D03*
X0030394Y0284232D03*
X0035394Y0254232D03*
X0045394Y0254232D03*
X0056894Y0244732D03*
X0076894Y0244732D03*
X0090394Y0254232D03*
X0100394Y0254232D03*
X0110394Y0254232D03*
X0121394Y0244732D03*
X0141394Y0244732D03*
X0158394Y0249232D03*
X0158394Y0257232D03*
X0170394Y0257232D03*
X0190394Y0257232D03*
X0200394Y0256232D03*
X0210394Y0256232D03*
X0220394Y0256732D03*
X0220394Y0248732D03*
X0232894Y0257232D03*
X0237894Y0238732D03*
X0247394Y0239232D03*
X0220394Y0208732D03*
X0237894Y0198732D03*
X0247394Y0199232D03*
X0242894Y0186732D03*
X0242894Y0176732D03*
X0211394Y0146232D03*
X0201394Y0161732D03*
X0201394Y0171732D03*
X0158394Y0209232D03*
X0169894Y0226732D03*
X0169894Y0236732D03*
X0205394Y0266232D03*
X0209894Y0236732D03*
X0209894Y0226732D03*
X0145394Y0186732D03*
X0134894Y0186732D03*
X0123894Y0186732D03*
X0107894Y0178232D03*
X0102894Y0170732D03*
X0097894Y0178232D03*
X0083394Y0178232D03*
X0078394Y0170732D03*
X0073394Y0178232D03*
X0060394Y0186732D03*
X0050394Y0186732D03*
X0040394Y0186732D03*
X0030394Y0186732D03*
X0035394Y0214232D03*
X0045394Y0214232D03*
X0025394Y0214232D03*
X0025394Y0254232D03*
X0090394Y0214232D03*
X0100394Y0214232D03*
X0110394Y0214232D03*
X0107894Y0158232D03*
X0102894Y0150732D03*
X0097894Y0158232D03*
X0083394Y0158232D03*
X0078394Y0150732D03*
X0073394Y0158232D03*
X0060394Y0146732D03*
X0050394Y0146732D03*
X0040394Y0146732D03*
X0030394Y0146732D03*
X0064000Y0102248D03*
X0074000Y0102248D03*
X0086894Y0057232D03*
X0050894Y0057232D03*
X0040894Y0057232D03*
X0126894Y0057232D03*
X0218394Y0057232D03*
X0218394Y0097232D03*
X0145394Y0146732D03*
X0134894Y0146732D03*
X0123894Y0146732D03*
X0302894Y0286732D03*
X0322894Y0286732D03*
X0332894Y0298732D03*
X0342894Y0296732D03*
X0352894Y0296732D03*
X0348394Y0286732D03*
X0363894Y0286732D03*
X0383894Y0286732D03*
X0397894Y0297732D03*
X0397894Y0257732D03*
X0398394Y0249732D03*
X0383894Y0257232D03*
X0363894Y0257232D03*
X0353394Y0256732D03*
X0343394Y0256732D03*
X0348394Y0266732D03*
X0317894Y0239232D03*
X0308394Y0239232D03*
X0386394Y0236732D03*
X0386394Y0226732D03*
X0398394Y0209732D03*
X0351894Y0138232D03*
D12*
X0309394Y0188732D03*
X0282894Y0185732D03*
X0256394Y0186232D03*
X0246394Y0160232D03*
X0246894Y0119232D03*
X0292894Y0085232D03*
D13*
X0292894Y0092232D03*
X0246894Y0112232D03*
X0246394Y0167232D03*
X0256394Y0179232D03*
X0282894Y0178732D03*
X0309394Y0181732D03*
D14*
X0234694Y0098332D03*
X0234694Y0089232D03*
X0234694Y0080132D03*
D15*
X0259094Y0089232D03*
D16*
X0189394Y0149332D02*
X0189394Y0154132D01*
X0179394Y0154132D02*
X0179394Y0149332D01*
X0169394Y0149332D02*
X0169394Y0154132D01*
X0159394Y0154132D02*
X0159394Y0149332D01*
X0159394Y0179332D02*
X0159394Y0184132D01*
X0169394Y0184132D02*
X0169394Y0179332D01*
X0179394Y0179332D02*
X0179394Y0184132D01*
X0189394Y0184132D02*
X0189394Y0179332D01*
D17*
X0364394Y0154232D03*
X0364394Y0135232D03*
D18*
X0344894Y0149232D02*
X0344894Y0155232D01*
X0334894Y0155232D02*
X0334894Y0149232D01*
X0324894Y0149232D02*
X0324894Y0155232D01*
X0350994Y0096532D02*
X0350994Y0090532D01*
X0368794Y0090532D02*
X0368794Y0096532D01*
X0368794Y0070932D02*
X0368794Y0064932D01*
X0350994Y0064932D02*
X0350994Y0070932D01*
X0224189Y0108878D02*
X0218189Y0108878D01*
X0218189Y0118878D02*
X0224189Y0118878D01*
X0224189Y0128878D02*
X0218189Y0128878D01*
X0190394Y0133732D02*
X0190394Y0139732D01*
X0180394Y0139732D02*
X0180394Y0133732D01*
X0170394Y0133732D02*
X0170394Y0139732D01*
X0160394Y0139732D02*
X0160394Y0133732D01*
X0150394Y0133732D02*
X0150394Y0139732D01*
X0140394Y0139732D02*
X0140394Y0133732D01*
X0130394Y0133732D02*
X0130394Y0139732D01*
X0120394Y0139732D02*
X0120394Y0133732D01*
X0110394Y0133732D02*
X0110394Y0139732D01*
X0100394Y0139732D02*
X0100394Y0133732D01*
X0090394Y0133732D02*
X0090394Y0139732D01*
X0080394Y0139732D02*
X0080394Y0133732D01*
X0070394Y0133732D02*
X0070394Y0139732D01*
X0060394Y0139732D02*
X0060394Y0133732D01*
X0050394Y0133732D02*
X0050394Y0139732D01*
X0040394Y0139732D02*
X0040394Y0133732D01*
X0030394Y0133732D02*
X0030394Y0139732D01*
X0077339Y0094516D02*
X0083339Y0094516D01*
X0083339Y0084516D02*
X0077339Y0084516D01*
X0077339Y0074516D02*
X0083339Y0074516D01*
X0080394Y0193732D02*
X0080394Y0199732D01*
X0090394Y0199732D02*
X0090394Y0193732D01*
X0100394Y0193732D02*
X0100394Y0199732D01*
X0110394Y0199732D02*
X0110394Y0193732D01*
X0120394Y0193732D02*
X0120394Y0199732D01*
X0130394Y0199732D02*
X0130394Y0193732D01*
X0140394Y0193732D02*
X0140394Y0199732D01*
X0150394Y0199732D02*
X0150394Y0193732D01*
X0160394Y0193732D02*
X0160394Y0199732D01*
X0170394Y0199732D02*
X0170394Y0193732D01*
X0180394Y0193732D02*
X0180394Y0199732D01*
X0190394Y0199732D02*
X0190394Y0193732D01*
X0070394Y0193732D02*
X0070394Y0199732D01*
X0060394Y0199732D02*
X0060394Y0193732D01*
X0050394Y0193732D02*
X0050394Y0199732D01*
X0040394Y0199732D02*
X0040394Y0193732D01*
X0030394Y0193732D02*
X0030394Y0199732D01*
D19*
X0267657Y0209732D03*
X0267657Y0214732D03*
X0267657Y0219732D03*
X0267657Y0224732D03*
X0267657Y0229732D03*
X0267657Y0234732D03*
X0267657Y0239732D03*
X0288130Y0239732D03*
X0288130Y0234732D03*
X0288130Y0229732D03*
X0288130Y0224732D03*
X0288130Y0219732D03*
X0288130Y0214732D03*
X0288130Y0209732D03*
D20*
X0290394Y0065732D03*
X0290394Y0055732D03*
X0300394Y0055732D03*
X0310394Y0055732D03*
X0310394Y0065732D03*
X0300394Y0065732D03*
X0320394Y0065732D03*
X0320394Y0055732D03*
X0330394Y0055732D03*
X0330394Y0065732D03*
X0280394Y0065732D03*
X0280394Y0055732D03*
X0270394Y0055732D03*
X0260394Y0055732D03*
X0250394Y0055732D03*
X0250394Y0065732D03*
X0260394Y0065732D03*
X0270394Y0065732D03*
X0240394Y0065732D03*
X0240394Y0055732D03*
X0230394Y0055732D03*
X0230394Y0065732D03*
X0110394Y0264232D03*
X0100394Y0264232D03*
X0090394Y0264232D03*
X0090394Y0274232D03*
X0100394Y0274232D03*
X0110394Y0274232D03*
X0045394Y0274232D03*
X0035394Y0274232D03*
X0035394Y0264232D03*
X0045394Y0264232D03*
X0025394Y0264232D03*
X0025394Y0274232D03*
D21*
X0051483Y0309232D03*
X0115787Y0309232D03*
X0180092Y0309232D03*
X0244396Y0309232D03*
X0308701Y0309232D03*
X0373005Y0309232D03*
D22*
X0395005Y0309232D03*
X0373005Y0347225D03*
X0351005Y0309232D03*
X0330701Y0309232D03*
X0308701Y0347225D03*
X0286701Y0309232D03*
X0266396Y0309232D03*
X0244396Y0347225D03*
X0222396Y0309232D03*
X0202092Y0309232D03*
X0180092Y0347225D03*
X0158092Y0309232D03*
X0137787Y0309232D03*
X0115787Y0347225D03*
X0093787Y0309232D03*
X0073483Y0309232D03*
X0051483Y0347225D03*
X0029483Y0309232D03*
D23*
X0185394Y0107232D03*
X0195394Y0107232D03*
X0195394Y0097232D03*
X0185394Y0097232D03*
X0185394Y0087232D03*
X0195394Y0087232D03*
X0195394Y0077232D03*
X0195394Y0067232D03*
X0185394Y0067232D03*
X0185394Y0077232D03*
D24*
X0261693Y0128406D03*
X0261693Y0130374D03*
X0261693Y0132343D03*
X0261693Y0134311D03*
X0261693Y0136280D03*
X0261693Y0138248D03*
X0261693Y0140217D03*
X0261693Y0142185D03*
X0261693Y0144154D03*
X0261693Y0146122D03*
X0261693Y0148091D03*
X0261693Y0150059D03*
X0299094Y0150059D03*
X0299094Y0148091D03*
X0299094Y0146122D03*
X0299094Y0144154D03*
X0299094Y0142185D03*
X0299094Y0140217D03*
X0299094Y0138248D03*
X0299094Y0136280D03*
X0299094Y0134311D03*
X0299094Y0132343D03*
X0299094Y0130374D03*
X0299094Y0128406D03*
D25*
X0291220Y0120532D03*
X0289252Y0120532D03*
X0287283Y0120532D03*
X0285315Y0120532D03*
X0283346Y0120532D03*
X0281378Y0120532D03*
X0279409Y0120532D03*
X0277441Y0120532D03*
X0275472Y0120532D03*
X0273504Y0120532D03*
X0271535Y0120532D03*
X0269567Y0120532D03*
X0269567Y0157933D03*
X0271535Y0157933D03*
X0273504Y0157933D03*
X0275472Y0157933D03*
X0277441Y0157933D03*
X0279409Y0157933D03*
X0281378Y0157933D03*
X0283346Y0157933D03*
X0285315Y0157933D03*
X0287283Y0157933D03*
X0289252Y0157933D03*
X0291220Y0157933D03*
D26*
X0038992Y0098316D03*
X0038992Y0078316D03*
D27*
X0025894Y0123732D03*
X0055894Y0123732D03*
X0089394Y0123732D03*
X0089394Y0115732D03*
X0119394Y0115732D03*
X0119394Y0123732D03*
D28*
X0146520Y0084516D03*
D29*
X0071394Y0113732D03*
X0071394Y0054232D03*
D30*
X0071394Y0064232D03*
X0071394Y0123732D03*
D31*
X0039016Y0331634D03*
X0359882Y0058012D03*
D32*
X0266894Y0080232D03*
X0166969Y0083603D03*
X0166969Y0091477D03*
X0159094Y0095414D03*
X0159094Y0103288D03*
X0151220Y0107225D03*
X0143346Y0103288D03*
X0143346Y0095414D03*
X0135472Y0099351D03*
X0127598Y0103288D03*
X0127598Y0095414D03*
X0135472Y0091477D03*
X0127598Y0087540D03*
X0135472Y0083603D03*
X0127598Y0079666D03*
X0135472Y0075729D03*
X0127598Y0071792D03*
X0135472Y0067855D03*
X0135472Y0059981D03*
X0143346Y0063918D03*
X0143346Y0071792D03*
X0151220Y0075729D03*
X0151220Y0067855D03*
X0151220Y0059981D03*
X0159094Y0063918D03*
X0159094Y0071792D03*
X0159094Y0079666D03*
X0159094Y0087540D03*
X0151220Y0099351D03*
X0135472Y0107225D03*
X0119724Y0107225D03*
X0111850Y0103288D03*
X0111850Y0095414D03*
X0111850Y0087540D03*
X0111850Y0079666D03*
X0111850Y0071792D03*
X0111850Y0063918D03*
X0103976Y0067855D03*
X0103976Y0075729D03*
X0103976Y0083603D03*
X0103976Y0091477D03*
X0103976Y0099351D03*
X0096102Y0103288D03*
X0088228Y0099351D03*
X0096102Y0095414D03*
X0090197Y0091477D03*
X0096102Y0087540D03*
X0090197Y0083603D03*
X0096102Y0079666D03*
X0090197Y0075729D03*
X0096102Y0071792D03*
X0088228Y0067855D03*
X0096102Y0063918D03*
X0103976Y0059981D03*
X0119724Y0059981D03*
X0119724Y0067855D03*
X0119724Y0075729D03*
X0119724Y0083603D03*
X0119724Y0091477D03*
X0119724Y0099351D03*
X0103976Y0107225D03*
X0080354Y0063918D03*
X0166969Y0075729D03*
X0289394Y0169232D03*
M02*
