G75*
%MOIN*%
%OFA0B0*%
%FSLAX25Y25*%
%IPPOS*%
%LPD*%
%AMOC8*
5,1,8,0,0,1.08239X$1,22.5*
%
%ADD10C,0.00000*%
D10*
X0015394Y0044232D02*
X0015394Y0359193D01*
X0409094Y0359193D01*
X0409094Y0044232D01*
X0015394Y0044232D01*
X0019095Y0054232D02*
X0019097Y0054390D01*
X0019103Y0054548D01*
X0019113Y0054706D01*
X0019127Y0054864D01*
X0019145Y0055021D01*
X0019166Y0055178D01*
X0019192Y0055334D01*
X0019222Y0055490D01*
X0019255Y0055645D01*
X0019293Y0055798D01*
X0019334Y0055951D01*
X0019379Y0056103D01*
X0019428Y0056254D01*
X0019481Y0056403D01*
X0019537Y0056551D01*
X0019597Y0056697D01*
X0019661Y0056842D01*
X0019729Y0056985D01*
X0019800Y0057127D01*
X0019874Y0057267D01*
X0019952Y0057404D01*
X0020034Y0057540D01*
X0020118Y0057674D01*
X0020207Y0057805D01*
X0020298Y0057934D01*
X0020393Y0058061D01*
X0020490Y0058186D01*
X0020591Y0058308D01*
X0020695Y0058427D01*
X0020802Y0058544D01*
X0020912Y0058658D01*
X0021025Y0058769D01*
X0021140Y0058878D01*
X0021258Y0058983D01*
X0021379Y0059085D01*
X0021502Y0059185D01*
X0021628Y0059281D01*
X0021756Y0059374D01*
X0021886Y0059464D01*
X0022019Y0059550D01*
X0022154Y0059634D01*
X0022290Y0059713D01*
X0022429Y0059790D01*
X0022570Y0059862D01*
X0022712Y0059932D01*
X0022856Y0059997D01*
X0023002Y0060059D01*
X0023149Y0060117D01*
X0023298Y0060172D01*
X0023448Y0060223D01*
X0023599Y0060270D01*
X0023751Y0060313D01*
X0023904Y0060352D01*
X0024059Y0060388D01*
X0024214Y0060419D01*
X0024370Y0060447D01*
X0024526Y0060471D01*
X0024683Y0060491D01*
X0024841Y0060507D01*
X0024998Y0060519D01*
X0025157Y0060527D01*
X0025315Y0060531D01*
X0025473Y0060531D01*
X0025631Y0060527D01*
X0025790Y0060519D01*
X0025947Y0060507D01*
X0026105Y0060491D01*
X0026262Y0060471D01*
X0026418Y0060447D01*
X0026574Y0060419D01*
X0026729Y0060388D01*
X0026884Y0060352D01*
X0027037Y0060313D01*
X0027189Y0060270D01*
X0027340Y0060223D01*
X0027490Y0060172D01*
X0027639Y0060117D01*
X0027786Y0060059D01*
X0027932Y0059997D01*
X0028076Y0059932D01*
X0028218Y0059862D01*
X0028359Y0059790D01*
X0028498Y0059713D01*
X0028634Y0059634D01*
X0028769Y0059550D01*
X0028902Y0059464D01*
X0029032Y0059374D01*
X0029160Y0059281D01*
X0029286Y0059185D01*
X0029409Y0059085D01*
X0029530Y0058983D01*
X0029648Y0058878D01*
X0029763Y0058769D01*
X0029876Y0058658D01*
X0029986Y0058544D01*
X0030093Y0058427D01*
X0030197Y0058308D01*
X0030298Y0058186D01*
X0030395Y0058061D01*
X0030490Y0057934D01*
X0030581Y0057805D01*
X0030670Y0057674D01*
X0030754Y0057540D01*
X0030836Y0057404D01*
X0030914Y0057267D01*
X0030988Y0057127D01*
X0031059Y0056985D01*
X0031127Y0056842D01*
X0031191Y0056697D01*
X0031251Y0056551D01*
X0031307Y0056403D01*
X0031360Y0056254D01*
X0031409Y0056103D01*
X0031454Y0055951D01*
X0031495Y0055798D01*
X0031533Y0055645D01*
X0031566Y0055490D01*
X0031596Y0055334D01*
X0031622Y0055178D01*
X0031643Y0055021D01*
X0031661Y0054864D01*
X0031675Y0054706D01*
X0031685Y0054548D01*
X0031691Y0054390D01*
X0031693Y0054232D01*
X0031691Y0054074D01*
X0031685Y0053916D01*
X0031675Y0053758D01*
X0031661Y0053600D01*
X0031643Y0053443D01*
X0031622Y0053286D01*
X0031596Y0053130D01*
X0031566Y0052974D01*
X0031533Y0052819D01*
X0031495Y0052666D01*
X0031454Y0052513D01*
X0031409Y0052361D01*
X0031360Y0052210D01*
X0031307Y0052061D01*
X0031251Y0051913D01*
X0031191Y0051767D01*
X0031127Y0051622D01*
X0031059Y0051479D01*
X0030988Y0051337D01*
X0030914Y0051197D01*
X0030836Y0051060D01*
X0030754Y0050924D01*
X0030670Y0050790D01*
X0030581Y0050659D01*
X0030490Y0050530D01*
X0030395Y0050403D01*
X0030298Y0050278D01*
X0030197Y0050156D01*
X0030093Y0050037D01*
X0029986Y0049920D01*
X0029876Y0049806D01*
X0029763Y0049695D01*
X0029648Y0049586D01*
X0029530Y0049481D01*
X0029409Y0049379D01*
X0029286Y0049279D01*
X0029160Y0049183D01*
X0029032Y0049090D01*
X0028902Y0049000D01*
X0028769Y0048914D01*
X0028634Y0048830D01*
X0028498Y0048751D01*
X0028359Y0048674D01*
X0028218Y0048602D01*
X0028076Y0048532D01*
X0027932Y0048467D01*
X0027786Y0048405D01*
X0027639Y0048347D01*
X0027490Y0048292D01*
X0027340Y0048241D01*
X0027189Y0048194D01*
X0027037Y0048151D01*
X0026884Y0048112D01*
X0026729Y0048076D01*
X0026574Y0048045D01*
X0026418Y0048017D01*
X0026262Y0047993D01*
X0026105Y0047973D01*
X0025947Y0047957D01*
X0025790Y0047945D01*
X0025631Y0047937D01*
X0025473Y0047933D01*
X0025315Y0047933D01*
X0025157Y0047937D01*
X0024998Y0047945D01*
X0024841Y0047957D01*
X0024683Y0047973D01*
X0024526Y0047993D01*
X0024370Y0048017D01*
X0024214Y0048045D01*
X0024059Y0048076D01*
X0023904Y0048112D01*
X0023751Y0048151D01*
X0023599Y0048194D01*
X0023448Y0048241D01*
X0023298Y0048292D01*
X0023149Y0048347D01*
X0023002Y0048405D01*
X0022856Y0048467D01*
X0022712Y0048532D01*
X0022570Y0048602D01*
X0022429Y0048674D01*
X0022290Y0048751D01*
X0022154Y0048830D01*
X0022019Y0048914D01*
X0021886Y0049000D01*
X0021756Y0049090D01*
X0021628Y0049183D01*
X0021502Y0049279D01*
X0021379Y0049379D01*
X0021258Y0049481D01*
X0021140Y0049586D01*
X0021025Y0049695D01*
X0020912Y0049806D01*
X0020802Y0049920D01*
X0020695Y0050037D01*
X0020591Y0050156D01*
X0020490Y0050278D01*
X0020393Y0050403D01*
X0020298Y0050530D01*
X0020207Y0050659D01*
X0020118Y0050790D01*
X0020034Y0050924D01*
X0019952Y0051060D01*
X0019874Y0051197D01*
X0019800Y0051337D01*
X0019729Y0051479D01*
X0019661Y0051622D01*
X0019597Y0051767D01*
X0019537Y0051913D01*
X0019481Y0052061D01*
X0019428Y0052210D01*
X0019379Y0052361D01*
X0019334Y0052513D01*
X0019293Y0052666D01*
X0019255Y0052819D01*
X0019222Y0052974D01*
X0019192Y0053130D01*
X0019166Y0053286D01*
X0019145Y0053443D01*
X0019127Y0053600D01*
X0019113Y0053758D01*
X0019103Y0053916D01*
X0019097Y0054074D01*
X0019095Y0054232D01*
X0019095Y0349193D02*
X0019097Y0349351D01*
X0019103Y0349509D01*
X0019113Y0349667D01*
X0019127Y0349825D01*
X0019145Y0349982D01*
X0019166Y0350139D01*
X0019192Y0350295D01*
X0019222Y0350451D01*
X0019255Y0350606D01*
X0019293Y0350759D01*
X0019334Y0350912D01*
X0019379Y0351064D01*
X0019428Y0351215D01*
X0019481Y0351364D01*
X0019537Y0351512D01*
X0019597Y0351658D01*
X0019661Y0351803D01*
X0019729Y0351946D01*
X0019800Y0352088D01*
X0019874Y0352228D01*
X0019952Y0352365D01*
X0020034Y0352501D01*
X0020118Y0352635D01*
X0020207Y0352766D01*
X0020298Y0352895D01*
X0020393Y0353022D01*
X0020490Y0353147D01*
X0020591Y0353269D01*
X0020695Y0353388D01*
X0020802Y0353505D01*
X0020912Y0353619D01*
X0021025Y0353730D01*
X0021140Y0353839D01*
X0021258Y0353944D01*
X0021379Y0354046D01*
X0021502Y0354146D01*
X0021628Y0354242D01*
X0021756Y0354335D01*
X0021886Y0354425D01*
X0022019Y0354511D01*
X0022154Y0354595D01*
X0022290Y0354674D01*
X0022429Y0354751D01*
X0022570Y0354823D01*
X0022712Y0354893D01*
X0022856Y0354958D01*
X0023002Y0355020D01*
X0023149Y0355078D01*
X0023298Y0355133D01*
X0023448Y0355184D01*
X0023599Y0355231D01*
X0023751Y0355274D01*
X0023904Y0355313D01*
X0024059Y0355349D01*
X0024214Y0355380D01*
X0024370Y0355408D01*
X0024526Y0355432D01*
X0024683Y0355452D01*
X0024841Y0355468D01*
X0024998Y0355480D01*
X0025157Y0355488D01*
X0025315Y0355492D01*
X0025473Y0355492D01*
X0025631Y0355488D01*
X0025790Y0355480D01*
X0025947Y0355468D01*
X0026105Y0355452D01*
X0026262Y0355432D01*
X0026418Y0355408D01*
X0026574Y0355380D01*
X0026729Y0355349D01*
X0026884Y0355313D01*
X0027037Y0355274D01*
X0027189Y0355231D01*
X0027340Y0355184D01*
X0027490Y0355133D01*
X0027639Y0355078D01*
X0027786Y0355020D01*
X0027932Y0354958D01*
X0028076Y0354893D01*
X0028218Y0354823D01*
X0028359Y0354751D01*
X0028498Y0354674D01*
X0028634Y0354595D01*
X0028769Y0354511D01*
X0028902Y0354425D01*
X0029032Y0354335D01*
X0029160Y0354242D01*
X0029286Y0354146D01*
X0029409Y0354046D01*
X0029530Y0353944D01*
X0029648Y0353839D01*
X0029763Y0353730D01*
X0029876Y0353619D01*
X0029986Y0353505D01*
X0030093Y0353388D01*
X0030197Y0353269D01*
X0030298Y0353147D01*
X0030395Y0353022D01*
X0030490Y0352895D01*
X0030581Y0352766D01*
X0030670Y0352635D01*
X0030754Y0352501D01*
X0030836Y0352365D01*
X0030914Y0352228D01*
X0030988Y0352088D01*
X0031059Y0351946D01*
X0031127Y0351803D01*
X0031191Y0351658D01*
X0031251Y0351512D01*
X0031307Y0351364D01*
X0031360Y0351215D01*
X0031409Y0351064D01*
X0031454Y0350912D01*
X0031495Y0350759D01*
X0031533Y0350606D01*
X0031566Y0350451D01*
X0031596Y0350295D01*
X0031622Y0350139D01*
X0031643Y0349982D01*
X0031661Y0349825D01*
X0031675Y0349667D01*
X0031685Y0349509D01*
X0031691Y0349351D01*
X0031693Y0349193D01*
X0031691Y0349035D01*
X0031685Y0348877D01*
X0031675Y0348719D01*
X0031661Y0348561D01*
X0031643Y0348404D01*
X0031622Y0348247D01*
X0031596Y0348091D01*
X0031566Y0347935D01*
X0031533Y0347780D01*
X0031495Y0347627D01*
X0031454Y0347474D01*
X0031409Y0347322D01*
X0031360Y0347171D01*
X0031307Y0347022D01*
X0031251Y0346874D01*
X0031191Y0346728D01*
X0031127Y0346583D01*
X0031059Y0346440D01*
X0030988Y0346298D01*
X0030914Y0346158D01*
X0030836Y0346021D01*
X0030754Y0345885D01*
X0030670Y0345751D01*
X0030581Y0345620D01*
X0030490Y0345491D01*
X0030395Y0345364D01*
X0030298Y0345239D01*
X0030197Y0345117D01*
X0030093Y0344998D01*
X0029986Y0344881D01*
X0029876Y0344767D01*
X0029763Y0344656D01*
X0029648Y0344547D01*
X0029530Y0344442D01*
X0029409Y0344340D01*
X0029286Y0344240D01*
X0029160Y0344144D01*
X0029032Y0344051D01*
X0028902Y0343961D01*
X0028769Y0343875D01*
X0028634Y0343791D01*
X0028498Y0343712D01*
X0028359Y0343635D01*
X0028218Y0343563D01*
X0028076Y0343493D01*
X0027932Y0343428D01*
X0027786Y0343366D01*
X0027639Y0343308D01*
X0027490Y0343253D01*
X0027340Y0343202D01*
X0027189Y0343155D01*
X0027037Y0343112D01*
X0026884Y0343073D01*
X0026729Y0343037D01*
X0026574Y0343006D01*
X0026418Y0342978D01*
X0026262Y0342954D01*
X0026105Y0342934D01*
X0025947Y0342918D01*
X0025790Y0342906D01*
X0025631Y0342898D01*
X0025473Y0342894D01*
X0025315Y0342894D01*
X0025157Y0342898D01*
X0024998Y0342906D01*
X0024841Y0342918D01*
X0024683Y0342934D01*
X0024526Y0342954D01*
X0024370Y0342978D01*
X0024214Y0343006D01*
X0024059Y0343037D01*
X0023904Y0343073D01*
X0023751Y0343112D01*
X0023599Y0343155D01*
X0023448Y0343202D01*
X0023298Y0343253D01*
X0023149Y0343308D01*
X0023002Y0343366D01*
X0022856Y0343428D01*
X0022712Y0343493D01*
X0022570Y0343563D01*
X0022429Y0343635D01*
X0022290Y0343712D01*
X0022154Y0343791D01*
X0022019Y0343875D01*
X0021886Y0343961D01*
X0021756Y0344051D01*
X0021628Y0344144D01*
X0021502Y0344240D01*
X0021379Y0344340D01*
X0021258Y0344442D01*
X0021140Y0344547D01*
X0021025Y0344656D01*
X0020912Y0344767D01*
X0020802Y0344881D01*
X0020695Y0344998D01*
X0020591Y0345117D01*
X0020490Y0345239D01*
X0020393Y0345364D01*
X0020298Y0345491D01*
X0020207Y0345620D01*
X0020118Y0345751D01*
X0020034Y0345885D01*
X0019952Y0346021D01*
X0019874Y0346158D01*
X0019800Y0346298D01*
X0019729Y0346440D01*
X0019661Y0346583D01*
X0019597Y0346728D01*
X0019537Y0346874D01*
X0019481Y0347022D01*
X0019428Y0347171D01*
X0019379Y0347322D01*
X0019334Y0347474D01*
X0019293Y0347627D01*
X0019255Y0347780D01*
X0019222Y0347935D01*
X0019192Y0348091D01*
X0019166Y0348247D01*
X0019145Y0348404D01*
X0019127Y0348561D01*
X0019113Y0348719D01*
X0019103Y0348877D01*
X0019097Y0349035D01*
X0019095Y0349193D01*
X0392795Y0349193D02*
X0392797Y0349351D01*
X0392803Y0349509D01*
X0392813Y0349667D01*
X0392827Y0349825D01*
X0392845Y0349982D01*
X0392866Y0350139D01*
X0392892Y0350295D01*
X0392922Y0350451D01*
X0392955Y0350606D01*
X0392993Y0350759D01*
X0393034Y0350912D01*
X0393079Y0351064D01*
X0393128Y0351215D01*
X0393181Y0351364D01*
X0393237Y0351512D01*
X0393297Y0351658D01*
X0393361Y0351803D01*
X0393429Y0351946D01*
X0393500Y0352088D01*
X0393574Y0352228D01*
X0393652Y0352365D01*
X0393734Y0352501D01*
X0393818Y0352635D01*
X0393907Y0352766D01*
X0393998Y0352895D01*
X0394093Y0353022D01*
X0394190Y0353147D01*
X0394291Y0353269D01*
X0394395Y0353388D01*
X0394502Y0353505D01*
X0394612Y0353619D01*
X0394725Y0353730D01*
X0394840Y0353839D01*
X0394958Y0353944D01*
X0395079Y0354046D01*
X0395202Y0354146D01*
X0395328Y0354242D01*
X0395456Y0354335D01*
X0395586Y0354425D01*
X0395719Y0354511D01*
X0395854Y0354595D01*
X0395990Y0354674D01*
X0396129Y0354751D01*
X0396270Y0354823D01*
X0396412Y0354893D01*
X0396556Y0354958D01*
X0396702Y0355020D01*
X0396849Y0355078D01*
X0396998Y0355133D01*
X0397148Y0355184D01*
X0397299Y0355231D01*
X0397451Y0355274D01*
X0397604Y0355313D01*
X0397759Y0355349D01*
X0397914Y0355380D01*
X0398070Y0355408D01*
X0398226Y0355432D01*
X0398383Y0355452D01*
X0398541Y0355468D01*
X0398698Y0355480D01*
X0398857Y0355488D01*
X0399015Y0355492D01*
X0399173Y0355492D01*
X0399331Y0355488D01*
X0399490Y0355480D01*
X0399647Y0355468D01*
X0399805Y0355452D01*
X0399962Y0355432D01*
X0400118Y0355408D01*
X0400274Y0355380D01*
X0400429Y0355349D01*
X0400584Y0355313D01*
X0400737Y0355274D01*
X0400889Y0355231D01*
X0401040Y0355184D01*
X0401190Y0355133D01*
X0401339Y0355078D01*
X0401486Y0355020D01*
X0401632Y0354958D01*
X0401776Y0354893D01*
X0401918Y0354823D01*
X0402059Y0354751D01*
X0402198Y0354674D01*
X0402334Y0354595D01*
X0402469Y0354511D01*
X0402602Y0354425D01*
X0402732Y0354335D01*
X0402860Y0354242D01*
X0402986Y0354146D01*
X0403109Y0354046D01*
X0403230Y0353944D01*
X0403348Y0353839D01*
X0403463Y0353730D01*
X0403576Y0353619D01*
X0403686Y0353505D01*
X0403793Y0353388D01*
X0403897Y0353269D01*
X0403998Y0353147D01*
X0404095Y0353022D01*
X0404190Y0352895D01*
X0404281Y0352766D01*
X0404370Y0352635D01*
X0404454Y0352501D01*
X0404536Y0352365D01*
X0404614Y0352228D01*
X0404688Y0352088D01*
X0404759Y0351946D01*
X0404827Y0351803D01*
X0404891Y0351658D01*
X0404951Y0351512D01*
X0405007Y0351364D01*
X0405060Y0351215D01*
X0405109Y0351064D01*
X0405154Y0350912D01*
X0405195Y0350759D01*
X0405233Y0350606D01*
X0405266Y0350451D01*
X0405296Y0350295D01*
X0405322Y0350139D01*
X0405343Y0349982D01*
X0405361Y0349825D01*
X0405375Y0349667D01*
X0405385Y0349509D01*
X0405391Y0349351D01*
X0405393Y0349193D01*
X0405391Y0349035D01*
X0405385Y0348877D01*
X0405375Y0348719D01*
X0405361Y0348561D01*
X0405343Y0348404D01*
X0405322Y0348247D01*
X0405296Y0348091D01*
X0405266Y0347935D01*
X0405233Y0347780D01*
X0405195Y0347627D01*
X0405154Y0347474D01*
X0405109Y0347322D01*
X0405060Y0347171D01*
X0405007Y0347022D01*
X0404951Y0346874D01*
X0404891Y0346728D01*
X0404827Y0346583D01*
X0404759Y0346440D01*
X0404688Y0346298D01*
X0404614Y0346158D01*
X0404536Y0346021D01*
X0404454Y0345885D01*
X0404370Y0345751D01*
X0404281Y0345620D01*
X0404190Y0345491D01*
X0404095Y0345364D01*
X0403998Y0345239D01*
X0403897Y0345117D01*
X0403793Y0344998D01*
X0403686Y0344881D01*
X0403576Y0344767D01*
X0403463Y0344656D01*
X0403348Y0344547D01*
X0403230Y0344442D01*
X0403109Y0344340D01*
X0402986Y0344240D01*
X0402860Y0344144D01*
X0402732Y0344051D01*
X0402602Y0343961D01*
X0402469Y0343875D01*
X0402334Y0343791D01*
X0402198Y0343712D01*
X0402059Y0343635D01*
X0401918Y0343563D01*
X0401776Y0343493D01*
X0401632Y0343428D01*
X0401486Y0343366D01*
X0401339Y0343308D01*
X0401190Y0343253D01*
X0401040Y0343202D01*
X0400889Y0343155D01*
X0400737Y0343112D01*
X0400584Y0343073D01*
X0400429Y0343037D01*
X0400274Y0343006D01*
X0400118Y0342978D01*
X0399962Y0342954D01*
X0399805Y0342934D01*
X0399647Y0342918D01*
X0399490Y0342906D01*
X0399331Y0342898D01*
X0399173Y0342894D01*
X0399015Y0342894D01*
X0398857Y0342898D01*
X0398698Y0342906D01*
X0398541Y0342918D01*
X0398383Y0342934D01*
X0398226Y0342954D01*
X0398070Y0342978D01*
X0397914Y0343006D01*
X0397759Y0343037D01*
X0397604Y0343073D01*
X0397451Y0343112D01*
X0397299Y0343155D01*
X0397148Y0343202D01*
X0396998Y0343253D01*
X0396849Y0343308D01*
X0396702Y0343366D01*
X0396556Y0343428D01*
X0396412Y0343493D01*
X0396270Y0343563D01*
X0396129Y0343635D01*
X0395990Y0343712D01*
X0395854Y0343791D01*
X0395719Y0343875D01*
X0395586Y0343961D01*
X0395456Y0344051D01*
X0395328Y0344144D01*
X0395202Y0344240D01*
X0395079Y0344340D01*
X0394958Y0344442D01*
X0394840Y0344547D01*
X0394725Y0344656D01*
X0394612Y0344767D01*
X0394502Y0344881D01*
X0394395Y0344998D01*
X0394291Y0345117D01*
X0394190Y0345239D01*
X0394093Y0345364D01*
X0393998Y0345491D01*
X0393907Y0345620D01*
X0393818Y0345751D01*
X0393734Y0345885D01*
X0393652Y0346021D01*
X0393574Y0346158D01*
X0393500Y0346298D01*
X0393429Y0346440D01*
X0393361Y0346583D01*
X0393297Y0346728D01*
X0393237Y0346874D01*
X0393181Y0347022D01*
X0393128Y0347171D01*
X0393079Y0347322D01*
X0393034Y0347474D01*
X0392993Y0347627D01*
X0392955Y0347780D01*
X0392922Y0347935D01*
X0392892Y0348091D01*
X0392866Y0348247D01*
X0392845Y0348404D01*
X0392827Y0348561D01*
X0392813Y0348719D01*
X0392803Y0348877D01*
X0392797Y0349035D01*
X0392795Y0349193D01*
X0392795Y0054232D02*
X0392797Y0054390D01*
X0392803Y0054548D01*
X0392813Y0054706D01*
X0392827Y0054864D01*
X0392845Y0055021D01*
X0392866Y0055178D01*
X0392892Y0055334D01*
X0392922Y0055490D01*
X0392955Y0055645D01*
X0392993Y0055798D01*
X0393034Y0055951D01*
X0393079Y0056103D01*
X0393128Y0056254D01*
X0393181Y0056403D01*
X0393237Y0056551D01*
X0393297Y0056697D01*
X0393361Y0056842D01*
X0393429Y0056985D01*
X0393500Y0057127D01*
X0393574Y0057267D01*
X0393652Y0057404D01*
X0393734Y0057540D01*
X0393818Y0057674D01*
X0393907Y0057805D01*
X0393998Y0057934D01*
X0394093Y0058061D01*
X0394190Y0058186D01*
X0394291Y0058308D01*
X0394395Y0058427D01*
X0394502Y0058544D01*
X0394612Y0058658D01*
X0394725Y0058769D01*
X0394840Y0058878D01*
X0394958Y0058983D01*
X0395079Y0059085D01*
X0395202Y0059185D01*
X0395328Y0059281D01*
X0395456Y0059374D01*
X0395586Y0059464D01*
X0395719Y0059550D01*
X0395854Y0059634D01*
X0395990Y0059713D01*
X0396129Y0059790D01*
X0396270Y0059862D01*
X0396412Y0059932D01*
X0396556Y0059997D01*
X0396702Y0060059D01*
X0396849Y0060117D01*
X0396998Y0060172D01*
X0397148Y0060223D01*
X0397299Y0060270D01*
X0397451Y0060313D01*
X0397604Y0060352D01*
X0397759Y0060388D01*
X0397914Y0060419D01*
X0398070Y0060447D01*
X0398226Y0060471D01*
X0398383Y0060491D01*
X0398541Y0060507D01*
X0398698Y0060519D01*
X0398857Y0060527D01*
X0399015Y0060531D01*
X0399173Y0060531D01*
X0399331Y0060527D01*
X0399490Y0060519D01*
X0399647Y0060507D01*
X0399805Y0060491D01*
X0399962Y0060471D01*
X0400118Y0060447D01*
X0400274Y0060419D01*
X0400429Y0060388D01*
X0400584Y0060352D01*
X0400737Y0060313D01*
X0400889Y0060270D01*
X0401040Y0060223D01*
X0401190Y0060172D01*
X0401339Y0060117D01*
X0401486Y0060059D01*
X0401632Y0059997D01*
X0401776Y0059932D01*
X0401918Y0059862D01*
X0402059Y0059790D01*
X0402198Y0059713D01*
X0402334Y0059634D01*
X0402469Y0059550D01*
X0402602Y0059464D01*
X0402732Y0059374D01*
X0402860Y0059281D01*
X0402986Y0059185D01*
X0403109Y0059085D01*
X0403230Y0058983D01*
X0403348Y0058878D01*
X0403463Y0058769D01*
X0403576Y0058658D01*
X0403686Y0058544D01*
X0403793Y0058427D01*
X0403897Y0058308D01*
X0403998Y0058186D01*
X0404095Y0058061D01*
X0404190Y0057934D01*
X0404281Y0057805D01*
X0404370Y0057674D01*
X0404454Y0057540D01*
X0404536Y0057404D01*
X0404614Y0057267D01*
X0404688Y0057127D01*
X0404759Y0056985D01*
X0404827Y0056842D01*
X0404891Y0056697D01*
X0404951Y0056551D01*
X0405007Y0056403D01*
X0405060Y0056254D01*
X0405109Y0056103D01*
X0405154Y0055951D01*
X0405195Y0055798D01*
X0405233Y0055645D01*
X0405266Y0055490D01*
X0405296Y0055334D01*
X0405322Y0055178D01*
X0405343Y0055021D01*
X0405361Y0054864D01*
X0405375Y0054706D01*
X0405385Y0054548D01*
X0405391Y0054390D01*
X0405393Y0054232D01*
X0405391Y0054074D01*
X0405385Y0053916D01*
X0405375Y0053758D01*
X0405361Y0053600D01*
X0405343Y0053443D01*
X0405322Y0053286D01*
X0405296Y0053130D01*
X0405266Y0052974D01*
X0405233Y0052819D01*
X0405195Y0052666D01*
X0405154Y0052513D01*
X0405109Y0052361D01*
X0405060Y0052210D01*
X0405007Y0052061D01*
X0404951Y0051913D01*
X0404891Y0051767D01*
X0404827Y0051622D01*
X0404759Y0051479D01*
X0404688Y0051337D01*
X0404614Y0051197D01*
X0404536Y0051060D01*
X0404454Y0050924D01*
X0404370Y0050790D01*
X0404281Y0050659D01*
X0404190Y0050530D01*
X0404095Y0050403D01*
X0403998Y0050278D01*
X0403897Y0050156D01*
X0403793Y0050037D01*
X0403686Y0049920D01*
X0403576Y0049806D01*
X0403463Y0049695D01*
X0403348Y0049586D01*
X0403230Y0049481D01*
X0403109Y0049379D01*
X0402986Y0049279D01*
X0402860Y0049183D01*
X0402732Y0049090D01*
X0402602Y0049000D01*
X0402469Y0048914D01*
X0402334Y0048830D01*
X0402198Y0048751D01*
X0402059Y0048674D01*
X0401918Y0048602D01*
X0401776Y0048532D01*
X0401632Y0048467D01*
X0401486Y0048405D01*
X0401339Y0048347D01*
X0401190Y0048292D01*
X0401040Y0048241D01*
X0400889Y0048194D01*
X0400737Y0048151D01*
X0400584Y0048112D01*
X0400429Y0048076D01*
X0400274Y0048045D01*
X0400118Y0048017D01*
X0399962Y0047993D01*
X0399805Y0047973D01*
X0399647Y0047957D01*
X0399490Y0047945D01*
X0399331Y0047937D01*
X0399173Y0047933D01*
X0399015Y0047933D01*
X0398857Y0047937D01*
X0398698Y0047945D01*
X0398541Y0047957D01*
X0398383Y0047973D01*
X0398226Y0047993D01*
X0398070Y0048017D01*
X0397914Y0048045D01*
X0397759Y0048076D01*
X0397604Y0048112D01*
X0397451Y0048151D01*
X0397299Y0048194D01*
X0397148Y0048241D01*
X0396998Y0048292D01*
X0396849Y0048347D01*
X0396702Y0048405D01*
X0396556Y0048467D01*
X0396412Y0048532D01*
X0396270Y0048602D01*
X0396129Y0048674D01*
X0395990Y0048751D01*
X0395854Y0048830D01*
X0395719Y0048914D01*
X0395586Y0049000D01*
X0395456Y0049090D01*
X0395328Y0049183D01*
X0395202Y0049279D01*
X0395079Y0049379D01*
X0394958Y0049481D01*
X0394840Y0049586D01*
X0394725Y0049695D01*
X0394612Y0049806D01*
X0394502Y0049920D01*
X0394395Y0050037D01*
X0394291Y0050156D01*
X0394190Y0050278D01*
X0394093Y0050403D01*
X0393998Y0050530D01*
X0393907Y0050659D01*
X0393818Y0050790D01*
X0393734Y0050924D01*
X0393652Y0051060D01*
X0393574Y0051197D01*
X0393500Y0051337D01*
X0393429Y0051479D01*
X0393361Y0051622D01*
X0393297Y0051767D01*
X0393237Y0051913D01*
X0393181Y0052061D01*
X0393128Y0052210D01*
X0393079Y0052361D01*
X0393034Y0052513D01*
X0392993Y0052666D01*
X0392955Y0052819D01*
X0392922Y0052974D01*
X0392892Y0053130D01*
X0392866Y0053286D01*
X0392845Y0053443D01*
X0392827Y0053600D01*
X0392813Y0053758D01*
X0392803Y0053916D01*
X0392797Y0054074D01*
X0392795Y0054232D01*
M02*
