G75*
%MOIN*%
%OFA0B0*%
%FSLAX25Y25*%
%IPPOS*%
%LPD*%
%AMOC8*
5,1,8,0,0,1.08239X$1,22.5*
%
%ADD10R,3.97984X1.35425*%
%ADD11R,3.96756X0.93969*%
%ADD12R,4.04724X0.00787*%
%ADD13R,0.57480X0.00787*%
%ADD14R,0.23622X0.00787*%
%ADD15R,0.32283X0.00787*%
%ADD16R,0.07874X0.00787*%
%ADD17R,0.22047X0.00787*%
%ADD18R,0.33858X0.00787*%
%ADD19R,0.24409X0.00787*%
%ADD20R,0.13386X0.00787*%
%ADD21R,0.20472X0.00787*%
%ADD22R,0.28346X0.00787*%
%ADD23R,0.19685X0.00787*%
%ADD24R,0.30709X0.00787*%
%ADD25R,0.18110X0.00787*%
%ADD26R,0.26772X0.00787*%
%ADD27R,0.29921X0.00787*%
%ADD28R,0.16535X0.00787*%
%ADD29R,0.15748X0.00787*%
%ADD30R,0.14173X0.00787*%
%ADD31R,0.21260X0.00787*%
%ADD32R,0.25984X0.00787*%
%ADD33R,0.12598X0.00787*%
%ADD34R,0.11811X0.00787*%
%ADD35R,0.18898X0.00787*%
%ADD36R,0.11024X0.00787*%
%ADD37R,0.22835X0.00787*%
%ADD38R,0.10236X0.00787*%
%ADD39R,0.17323X0.00787*%
%ADD40R,0.09449X0.00787*%
%ADD41R,0.08661X0.00787*%
%ADD42R,0.14961X0.00787*%
%ADD43R,0.31496X0.00787*%
%ADD44R,0.33071X0.00787*%
%ADD45R,0.07087X0.00787*%
%ADD46R,0.34646X0.00787*%
%ADD47R,0.35433X0.00787*%
%ADD48R,0.06299X0.00787*%
%ADD49R,0.36220X0.00787*%
%ADD50R,0.55118X0.00787*%
%ADD51R,0.74016X0.00787*%
%ADD52R,0.05512X0.00787*%
%ADD53R,0.75591X0.00787*%
%ADD54R,0.47244X0.00787*%
%ADD55R,0.48031X0.00787*%
%ADD56R,0.55906X0.00787*%
%ADD57R,0.48819X0.00787*%
%ADD58R,0.49606X0.00787*%
%ADD59R,0.37008X0.00787*%
%ADD60R,0.56693X0.00787*%
%ADD61R,0.54331X0.00787*%
%ADD62R,0.53543X0.00787*%
%ADD63R,0.52756X0.00787*%
%ADD64R,0.51181X0.00787*%
%ADD65R,0.25197X0.00787*%
%ADD66R,0.45669X0.00787*%
%ADD67R,0.04724X0.00787*%
%ADD68R,0.03937X0.00787*%
%ADD69R,0.40157X0.00787*%
%ADD70R,0.96850X0.00787*%
%ADD71R,0.97638X0.00787*%
%ADD72R,1.00787X0.00787*%
%ADD73R,1.73228X0.00787*%
%ADD74R,1.02362X0.00787*%
%ADD75R,1.74016X0.00787*%
%ADD76R,1.03150X0.00787*%
%ADD77R,1.74803X0.00787*%
%ADD78R,1.03937X0.00787*%
%ADD79R,1.75591X0.00787*%
%ADD80R,1.85039X0.00787*%
%ADD81R,1.85827X0.00787*%
%ADD82R,1.98425X0.00787*%
%ADD83R,1.96850X0.00787*%
%ADD84R,1.00000X0.00787*%
%ADD85R,1.95276X0.00787*%
%ADD86R,0.99213X0.00787*%
%ADD87R,1.92913X0.00787*%
%ADD88R,1.89764X0.00787*%
%ADD89R,0.95276X0.00787*%
%ADD90R,1.87402X0.00787*%
%ADD91R,0.40945X0.00787*%
D10*
X0212150Y0110693D03*
D11*
X0212150Y0314618D03*
D12*
X0212638Y0278091D03*
X0212638Y0277303D03*
X0212638Y0276516D03*
X0212638Y0275729D03*
X0212638Y0274941D03*
X0212638Y0274154D03*
X0212638Y0273366D03*
X0212638Y0272579D03*
X0212638Y0271792D03*
X0212638Y0271004D03*
X0212638Y0270217D03*
X0212638Y0269429D03*
X0212638Y0268642D03*
X0212638Y0267855D03*
X0212638Y0267067D03*
X0212638Y0266280D03*
X0212638Y0187540D03*
X0212638Y0186752D03*
X0212638Y0185965D03*
X0212638Y0185177D03*
X0212638Y0184390D03*
X0212638Y0183603D03*
X0212638Y0182815D03*
X0212638Y0182028D03*
X0212638Y0181240D03*
X0212638Y0180453D03*
X0212638Y0179666D03*
X0212638Y0178878D03*
X0212638Y0178091D03*
D13*
X0039016Y0188327D03*
X0039016Y0189114D03*
X0039016Y0189902D03*
X0039016Y0190689D03*
X0039016Y0191477D03*
X0039016Y0192264D03*
X0039016Y0193051D03*
X0039016Y0193839D03*
X0039016Y0194626D03*
X0039016Y0195414D03*
X0039016Y0196201D03*
X0039016Y0196988D03*
X0039016Y0197776D03*
X0039016Y0198563D03*
X0039016Y0199351D03*
X0039016Y0200138D03*
X0039016Y0200925D03*
X0039016Y0201713D03*
X0039016Y0202500D03*
X0039016Y0203288D03*
X0039016Y0204075D03*
X0039016Y0204862D03*
X0039016Y0205650D03*
X0039016Y0206437D03*
X0039016Y0207225D03*
X0039016Y0208012D03*
X0039016Y0208799D03*
X0039016Y0209587D03*
X0039016Y0210374D03*
X0039016Y0211162D03*
X0039016Y0211949D03*
D14*
X0096102Y0188327D03*
X0166181Y0191477D03*
X0222087Y0215099D03*
X0163031Y0260768D03*
X0333898Y0194626D03*
X0403189Y0260768D03*
D15*
X0170512Y0188327D03*
D16*
X0203976Y0214311D03*
X0203976Y0220610D03*
X0203976Y0221398D03*
X0203976Y0234784D03*
X0203976Y0235571D03*
X0230748Y0233209D03*
X0230748Y0232421D03*
X0230748Y0231634D03*
X0230748Y0230847D03*
X0230748Y0230059D03*
X0230748Y0229272D03*
X0230748Y0228484D03*
X0230748Y0227697D03*
X0230748Y0226910D03*
X0230748Y0226122D03*
X0230748Y0200138D03*
X0230748Y0199351D03*
X0230748Y0198563D03*
X0230748Y0197776D03*
X0230748Y0196988D03*
X0230748Y0196201D03*
X0230748Y0195414D03*
X0230748Y0194626D03*
X0230748Y0193839D03*
X0230748Y0193051D03*
X0230748Y0192264D03*
X0230748Y0191477D03*
X0230748Y0190689D03*
X0230748Y0189902D03*
X0230748Y0189114D03*
X0230748Y0188327D03*
X0157520Y0226910D03*
X0161457Y0248170D03*
X0088228Y0200925D03*
X0087441Y0222185D03*
X0327598Y0230059D03*
X0327598Y0230847D03*
X0361457Y0230847D03*
D17*
X0334685Y0196988D03*
X0334685Y0196201D03*
X0273268Y0188327D03*
X0222874Y0217461D03*
X0223661Y0237146D03*
X0403976Y0259193D03*
D18*
X0398071Y0265492D03*
X0328780Y0188327D03*
X0293346Y0201713D03*
X0293346Y0224547D03*
X0243740Y0223760D03*
X0087835Y0234784D03*
D19*
X0087835Y0233209D03*
X0166575Y0190689D03*
X0221693Y0214311D03*
X0333504Y0193839D03*
X0333504Y0193051D03*
X0372087Y0193051D03*
X0372087Y0192264D03*
X0372087Y0191477D03*
X0372087Y0190689D03*
X0372087Y0189902D03*
X0372087Y0189114D03*
X0372087Y0188327D03*
X0372087Y0193839D03*
X0372087Y0194626D03*
X0372087Y0195414D03*
X0372087Y0196201D03*
X0372087Y0196988D03*
X0372087Y0197776D03*
X0372087Y0198563D03*
X0372087Y0199351D03*
X0372087Y0200138D03*
X0372087Y0200925D03*
X0372087Y0201713D03*
X0372087Y0202500D03*
X0372087Y0203288D03*
X0372087Y0204075D03*
X0372087Y0204862D03*
X0372087Y0205650D03*
X0372087Y0206437D03*
X0372087Y0207225D03*
X0372087Y0208012D03*
X0372087Y0208799D03*
X0372087Y0209587D03*
X0372087Y0210374D03*
X0372087Y0211162D03*
X0372087Y0211949D03*
X0372087Y0212736D03*
X0372087Y0213524D03*
X0372087Y0214311D03*
X0372087Y0215099D03*
X0372087Y0215886D03*
X0372087Y0216673D03*
X0372087Y0217461D03*
X0372087Y0218248D03*
X0372087Y0219036D03*
X0372087Y0219823D03*
X0372087Y0220610D03*
X0372087Y0221398D03*
X0372087Y0222185D03*
X0372087Y0222973D03*
D20*
X0358701Y0236358D03*
X0408307Y0233209D03*
X0408307Y0232421D03*
X0408307Y0231634D03*
X0408307Y0230847D03*
X0408307Y0230059D03*
X0408307Y0229272D03*
X0408307Y0228484D03*
X0408307Y0227697D03*
X0408307Y0226910D03*
X0408307Y0226122D03*
X0408307Y0225335D03*
X0408307Y0224547D03*
X0408307Y0223760D03*
X0408307Y0222973D03*
X0408307Y0222185D03*
X0408307Y0221398D03*
X0408307Y0220610D03*
X0408307Y0219823D03*
X0408307Y0219036D03*
X0408307Y0218248D03*
X0408307Y0217461D03*
X0408307Y0216673D03*
X0408307Y0215886D03*
X0408307Y0215099D03*
X0408307Y0214311D03*
X0408307Y0213524D03*
X0408307Y0212736D03*
X0408307Y0211949D03*
X0408307Y0211162D03*
X0408307Y0210374D03*
X0408307Y0209587D03*
X0408307Y0208799D03*
X0408307Y0208012D03*
X0408307Y0207225D03*
X0408307Y0206437D03*
X0408307Y0205650D03*
X0408307Y0204862D03*
X0408307Y0204075D03*
X0408307Y0203288D03*
X0408307Y0202500D03*
X0408307Y0201713D03*
X0408307Y0200925D03*
X0408307Y0200138D03*
X0408307Y0199351D03*
X0408307Y0198563D03*
X0408307Y0197776D03*
X0408307Y0196988D03*
X0408307Y0196201D03*
X0408307Y0195414D03*
X0408307Y0194626D03*
X0408307Y0193839D03*
X0408307Y0193051D03*
X0408307Y0192264D03*
X0408307Y0191477D03*
X0408307Y0190689D03*
X0408307Y0189902D03*
X0408307Y0189114D03*
X0408307Y0188327D03*
X0277598Y0193051D03*
X0277598Y0193839D03*
X0277598Y0233209D03*
X0277598Y0233996D03*
X0162638Y0254469D03*
X0154764Y0221398D03*
X0161063Y0200925D03*
X0090984Y0193051D03*
X0016969Y0227697D03*
X0016969Y0228484D03*
X0016969Y0229272D03*
X0016969Y0256831D03*
X0016969Y0257618D03*
D21*
X0094528Y0189114D03*
X0164606Y0193051D03*
X0223661Y0218248D03*
X0224449Y0234784D03*
X0224449Y0235571D03*
X0163031Y0259981D03*
X0335472Y0200925D03*
X0335472Y0200138D03*
X0335472Y0199351D03*
X0335472Y0198563D03*
X0404764Y0256831D03*
X0404764Y0257618D03*
D22*
X0331535Y0190689D03*
X0168543Y0189114D03*
X0163031Y0263130D03*
D23*
X0162638Y0259193D03*
X0164213Y0193839D03*
X0274449Y0189114D03*
X0335866Y0201713D03*
X0335866Y0202500D03*
X0405157Y0256044D03*
X0020118Y0222185D03*
X0020118Y0221398D03*
D24*
X0330354Y0189114D03*
D25*
X0336654Y0204862D03*
X0336654Y0205650D03*
X0336654Y0206437D03*
X0336654Y0207225D03*
X0336654Y0219823D03*
X0336654Y0220610D03*
X0275236Y0189902D03*
X0163425Y0195414D03*
X0093346Y0189902D03*
X0087835Y0230847D03*
X0019331Y0222973D03*
X0019331Y0262343D03*
X0405945Y0253681D03*
D26*
X0401614Y0263130D03*
X0332323Y0191477D03*
X0167756Y0189902D03*
X0163031Y0262343D03*
D27*
X0330748Y0189902D03*
X0400039Y0263918D03*
D28*
X0406732Y0249744D03*
X0406732Y0248957D03*
X0335866Y0222185D03*
X0335079Y0222973D03*
X0276024Y0235571D03*
X0276024Y0190689D03*
X0162638Y0196988D03*
X0153189Y0220610D03*
X0092559Y0190689D03*
X0087835Y0229272D03*
X0087835Y0230059D03*
X0018543Y0224547D03*
X0018543Y0260768D03*
D29*
X0018150Y0259981D03*
X0018150Y0225335D03*
X0092165Y0191477D03*
X0162244Y0197776D03*
X0162244Y0256831D03*
X0276417Y0234784D03*
X0323661Y0237146D03*
X0334685Y0223760D03*
X0276417Y0191477D03*
X0407126Y0247382D03*
X0407126Y0248170D03*
D30*
X0407913Y0243445D03*
X0407913Y0242658D03*
X0407913Y0241870D03*
X0407913Y0241083D03*
X0407913Y0240295D03*
X0407913Y0239508D03*
X0407913Y0238721D03*
X0407913Y0237933D03*
X0407913Y0237146D03*
X0407913Y0236358D03*
X0407913Y0235571D03*
X0407913Y0234784D03*
X0407913Y0233996D03*
X0324449Y0236358D03*
X0277205Y0192264D03*
X0161457Y0200138D03*
X0162244Y0255256D03*
X0162244Y0256044D03*
X0091378Y0192264D03*
X0017362Y0226910D03*
X0017362Y0258406D03*
D31*
X0020906Y0263918D03*
X0087835Y0231634D03*
X0165000Y0192264D03*
X0224055Y0236358D03*
X0335079Y0197776D03*
X0404370Y0258406D03*
D32*
X0402008Y0262343D03*
X0332717Y0192264D03*
X0087835Y0233996D03*
D33*
X0087441Y0227697D03*
X0087441Y0226910D03*
X0090591Y0193839D03*
X0155157Y0222185D03*
X0160669Y0201713D03*
X0277992Y0194626D03*
X0277992Y0232421D03*
X0325236Y0234784D03*
X0325236Y0235571D03*
X0016575Y0230059D03*
X0016575Y0255256D03*
X0016575Y0256044D03*
D34*
X0016181Y0254469D03*
X0016181Y0231634D03*
X0016181Y0230847D03*
X0090197Y0194626D03*
X0155551Y0222973D03*
X0160276Y0204075D03*
X0160276Y0203288D03*
X0160276Y0202500D03*
X0188622Y0211949D03*
X0188622Y0243445D03*
X0278386Y0231634D03*
X0278386Y0195414D03*
X0359488Y0235571D03*
D35*
X0336260Y0204075D03*
X0336260Y0203288D03*
X0274843Y0237146D03*
X0225236Y0233996D03*
X0163031Y0258406D03*
X0152008Y0219823D03*
X0163819Y0194626D03*
X0019724Y0263130D03*
X0405551Y0255256D03*
X0405551Y0254469D03*
D36*
X0359882Y0234784D03*
X0326024Y0233996D03*
X0278780Y0230847D03*
X0278780Y0196201D03*
X0189016Y0211162D03*
X0188228Y0212736D03*
X0188228Y0213524D03*
X0185866Y0218248D03*
X0185079Y0220610D03*
X0185079Y0234784D03*
X0185079Y0235571D03*
X0185866Y0237146D03*
X0185866Y0237933D03*
X0186654Y0240295D03*
X0188228Y0241870D03*
X0188228Y0242658D03*
X0189016Y0244232D03*
X0162244Y0252894D03*
X0162244Y0253681D03*
X0155945Y0223760D03*
X0159882Y0204862D03*
X0089803Y0195414D03*
X0087441Y0225335D03*
X0087441Y0226122D03*
X0015787Y0232421D03*
X0015787Y0233209D03*
X0015787Y0252107D03*
X0015787Y0252894D03*
X0015787Y0253681D03*
D37*
X0021693Y0264705D03*
X0021693Y0220610D03*
X0087835Y0232421D03*
X0222480Y0216673D03*
X0222480Y0215886D03*
X0334291Y0195414D03*
X0403583Y0259981D03*
D38*
X0326417Y0233209D03*
X0279173Y0230059D03*
X0279173Y0229272D03*
X0279173Y0228484D03*
X0279173Y0198563D03*
X0279173Y0197776D03*
X0279173Y0196988D03*
X0187047Y0214311D03*
X0187047Y0215099D03*
X0186260Y0215886D03*
X0186260Y0216673D03*
X0186260Y0217461D03*
X0185472Y0219036D03*
X0185472Y0219823D03*
X0184685Y0221398D03*
X0184685Y0222185D03*
X0184685Y0222973D03*
X0184685Y0223760D03*
X0184685Y0224547D03*
X0184685Y0225335D03*
X0184685Y0226122D03*
X0184685Y0226910D03*
X0184685Y0227697D03*
X0184685Y0228484D03*
X0184685Y0229272D03*
X0184685Y0230059D03*
X0184685Y0230847D03*
X0184685Y0231634D03*
X0184685Y0232421D03*
X0184685Y0233209D03*
X0184685Y0233996D03*
X0185472Y0236358D03*
X0186260Y0238721D03*
X0186260Y0239508D03*
X0187047Y0241083D03*
X0087835Y0224547D03*
X0089409Y0196201D03*
X0015394Y0233996D03*
X0015394Y0234784D03*
X0015394Y0235571D03*
X0015394Y0236358D03*
X0015394Y0237146D03*
X0015394Y0237933D03*
X0015394Y0238721D03*
X0015394Y0239508D03*
X0015394Y0240295D03*
X0015394Y0245020D03*
X0015394Y0245807D03*
X0015394Y0246595D03*
X0015394Y0247382D03*
X0015394Y0248170D03*
X0015394Y0248957D03*
X0015394Y0249744D03*
X0015394Y0250532D03*
X0015394Y0251319D03*
D39*
X0018937Y0261555D03*
X0018937Y0223760D03*
X0163031Y0196201D03*
X0163031Y0257618D03*
X0275630Y0236358D03*
X0336260Y0221398D03*
X0337047Y0219036D03*
X0337047Y0218248D03*
X0337047Y0217461D03*
X0337047Y0216673D03*
X0337047Y0215886D03*
X0337047Y0215099D03*
X0337047Y0214311D03*
X0337047Y0213524D03*
X0337047Y0212736D03*
X0337047Y0211949D03*
X0337047Y0211162D03*
X0337047Y0210374D03*
X0337047Y0209587D03*
X0337047Y0208799D03*
X0337047Y0208012D03*
X0406339Y0250532D03*
X0406339Y0251319D03*
X0406339Y0252107D03*
X0406339Y0252894D03*
D40*
X0360669Y0233996D03*
X0326811Y0232421D03*
X0326811Y0231634D03*
X0279567Y0227697D03*
X0279567Y0200138D03*
X0279567Y0199351D03*
X0203189Y0224547D03*
X0203189Y0225335D03*
X0203189Y0226122D03*
X0203189Y0226910D03*
X0203189Y0227697D03*
X0203189Y0228484D03*
X0203189Y0229272D03*
X0203189Y0230059D03*
X0203189Y0230847D03*
X0203189Y0231634D03*
X0203189Y0232421D03*
X0162244Y0251319D03*
X0162244Y0252107D03*
X0156732Y0224547D03*
X0089016Y0197776D03*
X0089016Y0196988D03*
X0015000Y0241083D03*
X0015000Y0241870D03*
X0015000Y0242658D03*
X0015000Y0243445D03*
X0015000Y0244232D03*
D41*
X0087835Y0223760D03*
X0087835Y0222973D03*
X0088622Y0200138D03*
X0088622Y0199351D03*
X0088622Y0198563D03*
X0157126Y0225335D03*
X0157126Y0226122D03*
X0161850Y0248957D03*
X0161850Y0249744D03*
X0161850Y0250532D03*
X0203583Y0233996D03*
X0203583Y0233209D03*
X0203583Y0223760D03*
X0203583Y0222973D03*
X0203583Y0222185D03*
X0279961Y0226122D03*
X0279961Y0226910D03*
X0361063Y0231634D03*
X0361063Y0232421D03*
X0361063Y0233209D03*
D42*
X0357913Y0237146D03*
X0407520Y0244232D03*
X0407520Y0245020D03*
X0407520Y0245807D03*
X0407520Y0246595D03*
X0161850Y0199351D03*
X0161850Y0198563D03*
X0087835Y0228484D03*
X0017756Y0226122D03*
X0017756Y0259193D03*
D43*
X0242559Y0225335D03*
X0242559Y0200925D03*
X0399252Y0264705D03*
D44*
X0292165Y0225335D03*
X0292165Y0200925D03*
X0243346Y0201713D03*
X0243346Y0224547D03*
X0163031Y0263918D03*
D45*
X0204370Y0241083D03*
X0204370Y0236358D03*
X0204370Y0219823D03*
X0204370Y0219036D03*
X0204370Y0215099D03*
X0230354Y0250532D03*
X0230354Y0251319D03*
X0230354Y0252107D03*
X0230354Y0252894D03*
X0230354Y0253681D03*
X0230354Y0254469D03*
X0230354Y0255256D03*
X0230354Y0256044D03*
X0230354Y0256831D03*
X0230354Y0257618D03*
X0230354Y0258406D03*
X0230354Y0259193D03*
X0230354Y0259981D03*
X0230354Y0260768D03*
X0230354Y0261555D03*
X0230354Y0262343D03*
X0230354Y0263130D03*
X0230354Y0263918D03*
X0230354Y0264705D03*
X0230354Y0265492D03*
X0280748Y0218248D03*
X0280748Y0217461D03*
X0280748Y0216673D03*
X0280748Y0210374D03*
X0280748Y0209587D03*
X0280748Y0208799D03*
X0280748Y0208012D03*
X0280748Y0207225D03*
X0327992Y0229272D03*
X0361850Y0229272D03*
X0361850Y0230059D03*
X0157913Y0228484D03*
X0157913Y0227697D03*
X0087835Y0221398D03*
X0087835Y0203288D03*
X0087835Y0202500D03*
X0087835Y0201713D03*
D46*
X0244134Y0202500D03*
X0244134Y0203288D03*
X0244134Y0222973D03*
X0293740Y0223760D03*
X0294528Y0222973D03*
X0294528Y0222185D03*
X0294528Y0204075D03*
X0293740Y0202500D03*
D47*
X0294134Y0203288D03*
X0294921Y0204862D03*
X0294921Y0221398D03*
X0244528Y0222185D03*
X0244528Y0204075D03*
X0216181Y0212736D03*
X0216181Y0213524D03*
D48*
X0204764Y0215886D03*
X0204764Y0216673D03*
X0204764Y0218248D03*
X0204764Y0237146D03*
X0204764Y0237933D03*
X0204764Y0239508D03*
X0204764Y0240295D03*
X0161457Y0245807D03*
X0161457Y0246595D03*
X0161457Y0247382D03*
X0158307Y0229272D03*
X0087441Y0220610D03*
X0087441Y0219823D03*
X0087441Y0219036D03*
X0087441Y0205650D03*
X0087441Y0204862D03*
X0087441Y0204075D03*
X0281142Y0211162D03*
X0281142Y0211949D03*
X0281142Y0212736D03*
X0281142Y0213524D03*
X0281142Y0214311D03*
X0281142Y0215099D03*
X0281142Y0215886D03*
X0328386Y0226910D03*
X0328386Y0227697D03*
X0328386Y0228484D03*
X0362244Y0228484D03*
X0362244Y0227697D03*
X0362244Y0226910D03*
D49*
X0295315Y0220610D03*
X0295315Y0219823D03*
X0295315Y0219036D03*
X0295315Y0206437D03*
X0295315Y0205650D03*
X0244921Y0204862D03*
X0215787Y0211949D03*
D50*
X0137835Y0205650D03*
X0137047Y0206437D03*
X0137047Y0207225D03*
X0136260Y0208012D03*
X0135472Y0210374D03*
X0135472Y0211162D03*
X0037835Y0215099D03*
D51*
X0226024Y0205650D03*
D52*
X0205157Y0217461D03*
X0205157Y0238721D03*
X0161063Y0245020D03*
X0158701Y0230847D03*
X0158701Y0230059D03*
X0087047Y0218248D03*
X0087047Y0217461D03*
X0087047Y0216673D03*
X0087047Y0215886D03*
X0087047Y0215099D03*
X0087047Y0214311D03*
X0087047Y0213524D03*
X0087047Y0212736D03*
X0087047Y0211949D03*
X0087047Y0211162D03*
X0087047Y0210374D03*
X0087047Y0209587D03*
X0087047Y0208799D03*
X0087047Y0208012D03*
X0087047Y0207225D03*
X0087047Y0206437D03*
X0328780Y0225335D03*
X0328780Y0226122D03*
X0362638Y0226122D03*
X0362638Y0225335D03*
X0362638Y0224547D03*
X0362638Y0223760D03*
D53*
X0226024Y0206437D03*
D54*
X0210276Y0207225D03*
D55*
X0209882Y0208012D03*
X0239016Y0220610D03*
X0034291Y0219036D03*
D56*
X0038228Y0214311D03*
X0135079Y0213524D03*
X0135079Y0212736D03*
X0135079Y0211949D03*
X0135866Y0209587D03*
X0135866Y0208799D03*
D57*
X0137047Y0219036D03*
X0209488Y0208799D03*
X0238622Y0219823D03*
D58*
X0239016Y0219036D03*
X0209094Y0210374D03*
X0209094Y0209587D03*
D59*
X0215394Y0211162D03*
X0163425Y0264705D03*
D60*
X0038622Y0213524D03*
X0038622Y0212736D03*
D61*
X0037441Y0215886D03*
X0037441Y0216673D03*
X0135079Y0215099D03*
X0135079Y0214311D03*
D62*
X0135472Y0215886D03*
X0135472Y0216673D03*
X0037047Y0217461D03*
D63*
X0135866Y0217461D03*
D64*
X0135866Y0218248D03*
X0035866Y0218248D03*
D65*
X0022874Y0219823D03*
X0022874Y0265492D03*
X0163031Y0261555D03*
X0402402Y0261555D03*
D66*
X0239409Y0221398D03*
D67*
X0159882Y0235571D03*
X0159882Y0236358D03*
X0159882Y0237146D03*
X0160669Y0239508D03*
X0160669Y0240295D03*
X0160669Y0241083D03*
X0160669Y0241870D03*
X0160669Y0242658D03*
X0160669Y0243445D03*
X0160669Y0244232D03*
X0159094Y0232421D03*
X0159094Y0231634D03*
X0329173Y0224547D03*
D68*
X0160276Y0237933D03*
X0160276Y0238721D03*
X0159488Y0234784D03*
X0159488Y0233996D03*
X0159488Y0233209D03*
D69*
X0087835Y0235571D03*
D70*
X0089409Y0236358D03*
D71*
X0089016Y0237146D03*
X0089016Y0248957D03*
D72*
X0089016Y0237933D03*
D73*
X0297677Y0237933D03*
X0297677Y0238721D03*
D74*
X0089016Y0238721D03*
X0089016Y0239508D03*
X0089016Y0245807D03*
X0089016Y0246595D03*
D75*
X0297283Y0239508D03*
D76*
X0089409Y0240295D03*
D77*
X0296890Y0240295D03*
D78*
X0089016Y0241083D03*
X0089016Y0241870D03*
X0089016Y0242658D03*
X0089016Y0243445D03*
X0089016Y0244232D03*
X0089016Y0245020D03*
D79*
X0296496Y0241083D03*
D80*
X0291772Y0241870D03*
D81*
X0291378Y0242658D03*
X0291378Y0243445D03*
X0290591Y0244232D03*
D82*
X0283504Y0245020D03*
X0283504Y0245807D03*
D83*
X0283504Y0246595D03*
D84*
X0089409Y0247382D03*
D85*
X0283504Y0247382D03*
D86*
X0089016Y0248170D03*
D87*
X0283898Y0248170D03*
D88*
X0283898Y0248957D03*
D89*
X0089409Y0249744D03*
D90*
X0283504Y0249744D03*
D91*
X0163819Y0265492D03*
M02*
